<svg fill-opacity="1" xmlns:xlink="http://www.w3.org/1999/xlink" color-rendering="auto" color-interpolation="auto" text-rendering="auto" stroke="black" stroke-linecap="square" width="300" stroke-miterlimit="10" shape-rendering="auto" stroke-opacity="1" fill="black" stroke-dasharray="none" font-weight="normal" stroke-width="1" height="150" xmlns="http://www.w3.org/2000/svg" font-family="'Dialog'" font-style="normal" stroke-linejoin="miter" font-size="12px" stroke-dashoffset="0" image-rendering="auto"
><!--Generated by the Batik Graphics2D SVG Generator--><defs id="genericDefs"
  /><g
  ><g fill="rgb(0,157,209)" text-rendering="geometricPrecision" stroke="rgb(0,157,209)"
    ><path d="M0 0 L300 0 L255 150 L45 150 Z" stroke="none"
    /></g
    ><g fill="white" text-rendering="geometricPrecision" font-size="153px" font-weight="bold" font-family="'Arial'" stroke="white"
    ><path d="M71.5 41.0036 L71.5 21.5036 L143.2969 21.5036 L143.2969 36.7536 Q134.4062 45.488 125.2188 61.8474 Q116.0312 78.2068 111.2031 96.6286 Q106.3906 115.0349 106.4688 129.5349 L86.2188 129.5349 Q86.7344 106.8161 95.5938 83.2224 Q104.4531 59.613 119.2344 41.0036 L71.5 41.0036 ZM155.8413 100.4724 L176.1694 98.0036 Q177.1382 105.7849 181.3882 109.8943 Q185.6538 113.988 191.7007 113.988 Q198.2007 113.988 202.6382 109.0661 Q207.0913 104.1286 207.0913 95.7693 Q207.0913 87.8474 202.8257 83.2224 Q198.5757 78.5818 192.4507 78.5818 Q188.4194 78.5818 182.8101 80.1599 L185.1226 63.0505 Q193.6382 63.2693 198.1226 59.3474 Q202.6069 55.4255 202.6069 48.9255 Q202.6069 43.3943 199.3101 40.113 Q196.0288 36.8161 190.5757 36.8161 Q185.2007 36.8161 181.3882 40.5661 Q177.5913 44.3005 176.7632 51.4724 L157.4194 48.1755 Q159.4351 38.238 163.4976 32.3005 Q167.5757 26.363 174.8569 22.9724 Q182.1382 19.5661 191.1851 19.5661 Q206.6382 19.5661 215.9819 29.4255 Q223.6851 37.488 223.6851 47.6599 Q223.6851 62.0818 207.9194 70.6599 Q217.3257 72.6755 222.9663 79.7068 Q228.6069 86.7224 228.6069 96.6599 Q228.6069 111.0818 218.0757 121.2536 Q207.5444 131.4099 191.8569 131.4099 Q176.9819 131.4099 167.2007 122.863 Q157.4194 114.3005 155.8413 100.4724 Z" stroke="none"
    /></g
  ></g
></svg>
