<?xml version="1.0" encoding="UTF-8"?>
<svg id="Layer_1" data-name="Layer 1" xmlns="http://www.w3.org/2000/svg" viewBox="0 0 1298.24 1500">
  <defs>
    <style>
      .cls-1 {
        fill: #010101;
      }

      .cls-2 {
        fill: #fff;
      }
    </style>
  </defs>
  <path class="cls-1" d="m432.42,1098.72c67.36.9,132.44,24.47,184.75,66.91l25.96,22.97h4.99l30.96-27.96c98.04-81.04,237.58-88.34,343.54-17.98l225.69-443.4-149.8-99.86V244.88c-4.65-79.89-69.8-142.86-149.8-144.8h-49.93c3.43-51.73-35.74-96.44-87.47-99.86-4.12-.27-8.27-.27-12.39,0h-299.59c-51.73-3.43-96.44,35.74-99.86,87.47-.27,4.12-.27,8.27,0,12.39h-49.93c-80,1.95-145.14,64.91-149.8,144.8v354.52l-149.8,99.86,224.7,452.39c46.37-32.55,101.17-50.93,157.79-52.93ZM299.59,244.88c1.05-25.9,22.9-46.05,48.79-45,.38.02.76.04,1.14.06h599.19c25.87-1.71,48.22,17.87,49.93,43.73.14,2.07.14,4.13,0,6.2v299.59l-349.53-199.73-349.53,194.74V244.88Zm998.65,1053.58v99.86c-26.22,1.94-50.62,14.14-67.91,33.95-27.13,28.79-61.7,49.52-99.86,59.92-61.39,18.13-127.78,4.24-176.76-36.95l-38.95-34.95c-30.39-30.22-79.46-30.22-109.85,0-13.98,11.98-26.96,24.97-41.94,36.95-73.18,58.48-177.9,55.52-247.67-6.99l-38.95-34.95c-28.6-24.99-71.26-24.99-99.86,0-18.97,14.98-35.95,31.96-54.93,46.94-70.33,52.08-167.09,49.61-234.68-5.99l-30.96-26.96c-14.45-16.55-34.23-27.5-55.92-30.96v-99.86c25.82-3.2,51.98,1.69,74.9,13.98,27.78,17.2,54.17,36.56,78.89,57.92,20.48,22.32,51.4,31.86,80.89,24.97,11.23-3.33,21.74-8.75,30.96-15.98,15.98-11.98,28.96-25.96,44.94-38.95,70.96-58.8,173.71-58.8,244.67,0,15.98,12.98,30.96,27.96,46.94,40.94,28.6,24.99,71.26,24.99,99.86,0,15.98-12.98,30.96-27.96,46.94-40.94,71.13-59.35,174.53-59.35,245.67,0,14.98,12.98,28.96,26.96,43.94,38.95,28.6,24.99,71.26,24.99,99.86,0l46.94-40.94c31.91-25.89,71.76-40,112.85-39.95Z"/>
  <path class="cls-1" d="m335.14,374.11c.43.57.99,1.39,1.69,2.45.7,1.06,2.23,2.92,4.61,5.6,2.37,2.68,4.93,5.51,7.66,8.51s6.26,6.12,10.59,9.38,8.74,6.35,13.25,9.29c4.51,2.93,9.85,5.58,16,7.93,6.15,2.35,12.3,4.16,18.43,5.41,6.13,1.26,13.03,1.75,20.69,1.5,7.66-.26,15.36-1.42,23.08-3.49,7.73-2.07,14.97-4.91,21.74-8.52,6.76-3.61,12.55-7.5,17.37-11.69,4.81-4.19,9.17-8.81,13.06-13.85,3.89-5.05,7.19-10,9.89-14.87,2.7-4.86,4.98-9.75,6.84-14.67,1.86-4.91,3.35-9.39,4.48-13.42s1.94-7.7,2.43-11.01.86-5.82,1.09-7.54l.29-2.77c-.3-.61-.85-1.36-1.64-2.25-.79-.89-2.34-2.82-4.66-5.79s-4.85-5.74-7.61-8.31c-2.76-2.57-6.29-5.7-10.59-9.38-4.3-3.68-8.73-6.84-13.31-9.48s-9.89-5.22-15.95-7.74-12.22-4.39-18.48-5.61-13.14-1.65-20.64-1.3-15.21,1.45-23.13,3.3-15.17,4.69-21.74,8.52c-6.57,3.83-12.34,7.79-17.31,11.89-4.98,4.09-9.33,8.71-13.06,13.85s-7.03,10.1-9.89,14.87-5.14,9.66-6.84,14.67-3.19,9.48-4.48,13.42c-1.29,3.94-2.1,7.6-2.43,11.01-.33,3.4-.69,5.91-1.09,7.54l-.34,2.58Zm48.3-12.94c-3.55-13.27-1.89-25.86,4.99-37.78,6.88-11.92,17-19.74,30.36-23.46,13.36-3.72,26.03-2.01,38.02,5.13,11.99,7.14,19.73,17.21,23.21,30.22,3.49,13.01,1.84,25.67-4.94,37.97-6.78,12.31-16.92,20.06-30.42,23.26-13.5,3.2-26.16,1.56-37.97-4.94-11.82-6.5-19.57-16.63-23.26-30.42Zm24.15-19.05c1.79-6.7,5.71-11.79,11.75-15.28,6.04-3.49,12.33-4.29,18.86-2.4,6.53,1.89,11.58,5.73,15.14,11.51s4.4,12.15,2.54,19.11c-1.86,6.95-5.76,11.98-11.7,15.09-5.94,3.1-12.24,3.97-18.92,2.59-.13-.03-.3-.15-.53-.35-.22-.2-.42-.25-.58-.16,1.39-2.11,2.32-4,2.76-5.68,1.35-5.02.75-9.74-1.8-14.15-2.55-4.41-6.39-7.3-11.55-8.68-1.55-.41-3.58-.55-6.11-.39.03-.13.02-.34-.04-.63s0-.49.16-.58h0Z"/>
  <path class="cls-1" d="m965.14,363.07c-.43.57-.99,1.39-1.69,2.45-.7,1.06-2.23,2.92-4.61,5.6-2.37,2.68-4.93,5.51-7.66,8.51-2.73,2.99-6.26,6.12-10.59,9.38-4.32,3.26-8.74,6.35-13.25,9.29-4.51,2.93-9.85,5.58-16,7.93-6.15,2.35-12.3,4.16-18.43,5.41-6.13,1.26-13.03,1.75-20.69,1.5-7.66-.26-15.36-1.42-23.08-3.49-7.73-2.07-14.97-4.91-21.74-8.52-6.76-3.61-12.55-7.5-17.37-11.69-4.81-4.19-9.17-8.81-13.06-13.85-3.89-5.05-7.19-10-9.89-14.87-2.7-4.86-4.98-9.75-6.84-14.67-1.86-4.91-3.35-9.39-4.48-13.42-1.13-4.03-1.94-7.7-2.43-11.01s-.86-5.82-1.09-7.54l-.29-2.77c.3-.61.85-1.36,1.64-2.25.79-.89,2.34-2.82,4.66-5.79s4.85-5.74,7.61-8.31c2.76-2.57,6.29-5.7,10.59-9.38,4.3-3.68,8.73-6.84,13.31-9.48s9.89-5.22,15.95-7.74c6.06-2.52,12.22-4.39,18.48-5.61s13.14-1.65,20.64-1.3c7.5.35,15.21,1.45,23.13,3.3,7.93,1.85,15.17,4.69,21.74,8.52,6.57,3.83,12.34,7.79,17.31,11.89,4.98,4.09,9.33,8.71,13.06,13.85,3.73,5.14,7.03,10.1,9.89,14.87s5.14,9.66,6.84,14.67,3.19,9.48,4.48,13.42c1.29,3.94,2.1,7.6,2.43,11.01.33,3.4.69,5.91,1.09,7.54l.34,2.58Zm-48.3-12.94c3.55-13.27,1.89-25.86-4.99-37.78-6.88-11.92-17-19.74-30.36-23.46-13.36-3.72-26.03-2.01-38.02,5.13-11.99,7.14-19.73,17.21-23.21,30.22-3.49,13.01-1.84,25.67,4.94,37.97,6.78,12.31,16.92,20.06,30.42,23.26s26.16,1.56,37.97-4.94c11.82-6.5,19.57-16.63,23.26-30.42Zm-24.15-19.05c-1.79-6.7-5.71-11.79-11.75-15.28-6.04-3.49-12.33-4.29-18.86-2.4-6.53,1.89-11.58,5.73-15.14,11.51-3.56,5.78-4.4,12.15-2.54,19.11,1.86,6.95,5.76,11.98,11.7,15.09,5.94,3.1,12.24,3.97,18.92,2.59.13-.03.3-.15.53-.35.22-.2.42-.25.58-.16-1.39-2.11-2.32-4-2.76-5.68-1.35-5.02-.75-9.74,1.8-14.15,2.55-4.41,6.39-7.3,11.55-8.68,1.55-.41,3.58-.55,6.11-.39-.03-.13-.02-.34.04-.63s0-.49-.16-.58h0Z"/>
  <path class="cls-2" d="m400.75,862.84c.91.65,7.25-2.75,16.98-7.04,72.03-31.8,174.34-44.02,241.87-41.67,143.74,5,222.32,79.2,236.2,69.89,18.03-12.09-92.83-151.79-236.2-152.5-138.15-.68-263.65,127.92-258.85,131.32Z"/>
  <path class="cls-2" d="m290.46,608.7s-.08.09-.11.14h0s.08-.1.12-.14Zm31.46,71.61c-.06.05-.13.1-.19.14,0,0,0,0-.01,0,.07-.05.13-.1.2-.15Zm17.69-24.55c-1.26,3.27-3.01,6.39-4.77,9.39-1.81,3.1-3.85,6.01-6.16,8.66-2.13,2.44-4.45,4.75-6.94,6.65-1.41,1.08-2.84,2.15-4.34,2.98-1.67.92-3.46,1.57-5.21,2.12-2.82.89-5.71,1.63-8.58,1.87-2.63.21-5.25-.04-7.76-.62-1.21-.28-2.43-.52-3.63-.79-1.26-.29-2.51-.7-3.73-1.1-2.32-.76-4.18-2.54-6.03-4.16-.96-.84-1.95-1.64-2.83-2.58-1.06-1.12-2.04-2.31-2.97-3.58-1.79-2.43-3.22-5.25-4.44-8.14-.7-1.65-1.23-3.33-1.61-5.15-.34-1.58-.5-3.23-.64-4.86-.13-1.57-.12-3.2-.12-4.79,0-1.76-.02-3.55.26-5.32.52-3.44,1.56-6.86,2.7-10.16.52-1.49,1.11-2.99,1.76-4.42.76-1.68,1.53-3.38,2.46-4.95,1.8-3.03,3.8-5.88,5.87-8.68,1.95-2.65,4.08-5.13,6.16-7.65-.05.07-.11.14-.17.21.09-.11.18-.22.27-.34.06-.07.12-.15.19-.23-.05.06-.11.13-.16.19.39-.49.78-.97,1.18-1.45,3.08-3.77,6.21-7.48,9.56-10.94,2.26-2.33,4.57-4.59,6.86-6.89,2.29-2.32,4.54-4.71,6.96-6.85,2.38-2.12,4.82-4.15,7.21-6.28,1.18-1.06,2.37-2.11,3.55-3.19,1.25-1.13,2.6-2.11,3.92-3.12.25-.19.49-.38.73-.58.35-1.35,1.29-2.51,2.57-2.86.53-.15,1.09-.12,1.59.07.99.36,1.78,1.29,1.83,2.57.05,1.45.04,2.95.22,4.38.16,1.3.39,2.55.66,3.81.43,1.95.86,3.9,1.19,5.88.3,1.77.64,3.54,1.02,5.29.32,1.41.66,2.82.92,4.26.25,1.37.49,2.75.74,4.11.23,1.24.51,2.46.75,3.7.25,1.35.49,2.69.74,4.03.57,3.06.96,6.19,1.28,9.34.32,3.23.64,6.5.66,9.81.03,3.27.08,6.54.05,9.82-.01,1.76-.11,3.55-.2,5.32-.09,1.65-.29,3.3-.59,4.95-.65,3.5-1.67,6.93-2.96,10.27Zm-4.09-3.59c.62-1.73,1.14-3.48,1.62-5.25.39-1.74.69-3.49.85-5.23.18-1.95.25-3.89.33-5.83.02-2.58,0-5.16-.03-7.73-.01-2.85-.17-5.65-.43-8.45-.26-2.83-.55-5.66-.96-8.45-.39-2.69-.93-5.33-1.48-7.95.02.07.03.14.05.2-.56-2.48-1.09-4.98-1.61-7.49-.49-2.1-1.06-4.17-1.51-6.3-.37-1.78-.73-3.58-1.1-5.35-.41-1.71-.92-3.38-1.32-5.11-.14-.6-.26-1.2-.37-1.81-.26.2-.52.4-.78.59-2.32,1.82-4.54,3.8-6.8,5.72-2.26,1.93-4.6,3.78-6.79,5.84-2.37,2.22-4.64,4.58-6.95,6.88-2.29,2.28-4.56,4.58-6.76,6.96-4.26,4.59-8.25,9.51-12.26,14.39-3.3,4.18-6.43,8.53-8.98,13.33-1.88,4.06-3.29,8.25-4.38,12.58-.21.96-.42,1.93-.52,2.91-.09.96-.15,1.9-.18,2.85.01,1.57.03,3.14.15,4.69.12,1.62.33,3.2.61,4.76.25.95.54,1.86.87,2.76.34.92.77,1.77,1.19,2.62,1.61,3.04,3.46,5.87,5.67,8.34,1.12,1.12,2.35,2.07,3.5,3.15.96.91,2,1.75,3.12,2.43.49.24,1.01.42,1.53.61.8.28,1.6.57,2.43.76,1.52.35,3.05.66,4.57,1,2.17.39,4.35.68,6.61.47,2.91-.5,5.79-1.27,8.64-2.38.98-.45,1.92-.95,2.85-1.58.85-.58,1.69-1.17,2.53-1.79,2.51-2.05,4.85-4.43,7.02-6.98,1.36-1.71,2.62-3.5,3.78-5.4,1.17-1.93,2.26-3.9,3.29-5.92.75-1.59,1.43-3.2,2.03-4.87Zm-46.36-41.88c-.05.05-.09.11-.14.16.03-.05.07-.08.11-.13.01,0,.02-.02.03-.03Zm44.92,27.73c.18-1.56-.56-2.92-1.74-3.35-.23-.08-.48-.14-.74-.14-1.54-.04-3.17,1.47-3.34,3.33-.15,1.53-.3,3.06-.63,4.59-.57,2.22-1.19,4.41-2.02,6.56-.32.82-.67,1.63-.99,2.45-.42,1.05-.82,2.1-1.3,3.13-1.35,2.57-2.94,4.97-4.71,7.21-1.1,1.28-2.26,2.43-3.54,3.45-.95.7-1.95,1.35-2.98,1.83-.18.06-.35.11-.53.14-.18.02-.37.05-.54.11-1.5.49-2.63,2.12-2.46,3.89.09.81.45,1.53,1.01,1.97.72.57,1.9.73,2.78.11.47-.33,1-.57,1.5-.84.98-.53,1.96-1.07,2.9-1.73.96-.66,1.91-1.37,2.81-2.17,1.2-1.07,2.29-2.29,3.32-3.59,1.54-1.94,3.07-3.96,4.39-6.1,1.18-1.91,2.07-4,2.97-6.06.83-1.88,1.57-3.87,2.08-5.87.75-2.94,1.44-5.94,1.78-8.92Z"/>
  <path class="cls-2" d="m929.59,607.86c0,.06,0,.12,0,.18h0c0-.06,0-.12,0-.18Zm70.13,34.63c-.02.08-.04.15-.06.23,0,0,0,0,0,.01.02-.08.04-.16.06-.24Zm-2.23-30.18c1.14,3.32,1.8,6.83,2.38,10.26.6,3.54.91,7.08.84,10.59-.07,3.24-.36,6.5-1.04,9.56-.39,1.73-.79,3.48-1.41,5.08-.69,1.78-1.64,3.43-2.63,4.98-1.59,2.5-3.33,4.92-5.37,6.94-1.88,1.85-4.05,3.35-6.34,4.51-1.11.56-2.2,1.16-3.29,1.73-1.16.59-2.37,1.08-3.57,1.56-2.26.91-4.83.74-7.29.69-1.27-.03-2.55,0-3.83-.15-1.53-.18-3.05-.46-4.57-.83-2.94-.71-5.85-1.95-8.64-3.38-1.59-.81-3.08-1.76-4.55-2.91-1.27-1-2.46-2.15-3.62-3.31-1.11-1.12-2.15-2.37-3.17-3.6-1.13-1.35-2.29-2.71-3.22-4.24-1.82-2.97-3.21-6.26-4.46-9.52-.56-1.47-1.07-3-1.5-4.51-.5-1.77-1-3.57-1.3-5.37-.57-3.48-.86-6.94-1.09-10.42-.21-3.29-.17-6.55-.19-9.82,0,.09,0,.18,0,.27,0-.15,0-.29,0-.44,0-.1,0-.19,0-.3,0,.08,0,.17,0,.25-.01-.63-.02-1.25-.03-1.87-.07-4.87-.05-9.72.29-14.53.23-3.24.56-6.45.83-9.69.27-3.25.45-6.52.93-9.72.46-3.15,1.03-6.28,1.49-9.44.22-1.57.45-3.14.67-4.72.23-1.67.63-3.29,1-4.91.07-.3.14-.6.18-.91-.6-1.26-.62-2.75.13-3.84.31-.46.76-.79,1.26-.97.99-.36,2.19-.15,3.05.79.97,1.08,1.93,2.23,2.98,3.22.96.89,1.94,1.71,2.96,2.5,1.58,1.21,3.16,2.44,4.69,3.74,1.37,1.16,2.77,2.3,4.18,3.4,1.16.87,2.32,1.73,3.45,2.67,1.07.89,2.14,1.79,3.21,2.67.97.8,1.97,1.56,2.95,2.35,1.06.87,2.11,1.74,3.16,2.61,2.41,1.98,4.72,4.13,6.98,6.33,2.32,2.27,4.67,4.57,6.81,7.09,2.12,2.49,4.27,4.96,6.35,7.49,1.12,1.36,2.19,2.79,3.27,4.21,1,1.32,1.9,2.71,2.73,4.17,1.75,3.1,3.17,6.38,4.34,9.77Zm-5.44-.12c-.63-1.72-1.37-3.4-2.13-5.06-.82-1.58-1.71-3.12-2.71-4.56-1.12-1.61-2.3-3.14-3.49-4.68-1.64-1.99-3.32-3.95-4.99-5.9-1.84-2.17-3.77-4.22-5.76-6.19-2.02-2-4.06-3.98-6.16-5.85-2.02-1.81-4.14-3.48-6.25-5.14.06.04.11.08.17.13-2.03-1.54-4.04-3.12-6.04-4.7-1.73-1.29-3.49-2.52-5.2-3.86-1.43-1.13-2.86-2.27-4.28-3.39-1.42-1.05-2.88-2-4.29-3.07-.49-.37-.97-.75-1.45-1.15-.07.32-.15.64-.22.96-.61,2.88-1.04,5.83-1.53,8.75-.49,2.93-1.09,5.85-1.45,8.84-.39,3.22-.61,6.49-.9,9.74-.29,3.21-.55,6.43-.71,9.68-.32,6.25-.21,12.59-.14,18.91.16,5.32.56,10.67,1.69,15.99,1.17,4.31,2.78,8.44,4.73,12.46.46.88.92,1.75,1.47,2.56.55.79,1.1,1.55,1.69,2.3,1.02,1.19,2.04,2.38,3.13,3.5,1.13,1.16,2.31,2.24,3.53,3.26.8.56,1.6,1.08,2.44,1.55.85.49,1.72.86,2.6,1.25,3.19,1.3,6.42,2.27,9.7,2.75,1.57.14,3.13.07,4.71.17,1.33.08,2.66.05,3.95-.14.53-.13,1.04-.32,1.56-.51.8-.3,1.59-.6,2.35-.98,1.39-.7,2.76-1.45,4.14-2.18,1.91-1.1,3.76-2.27,5.37-3.89,1.91-2.26,3.62-4.69,5.08-7.38.46-.97.87-1.96,1.17-3.04.28-.99.55-1.98.79-2.99.61-3.18.87-6.51.89-9.86-.06-2.19-.24-4.37-.58-6.56-.34-2.22-.77-4.44-1.28-6.65-.45-1.7-.96-3.37-1.57-5.04Zm-62.43-2.28c0,.07,0,.14,0,.21,0-.06,0-.11,0-.17,0-.02,0-.03,0-.05Zm52.23-7.63c-.86-1.31-2.3-1.88-3.49-1.45-.23.08-.46.21-.66.37-1.21.96-1.48,3.16-.42,4.7.87,1.27,1.74,2.54,2.47,3.92.99,2.06,1.92,4.14,2.66,6.32.28.83.54,1.68.81,2.51.35,1.07.72,2.14,1.02,3.23.61,2.84.94,5.7,1.03,8.55-.02,1.69-.17,3.31-.5,4.92-.28,1.15-.63,2.29-1.11,3.32-.1.16-.2.31-.31.45-.13.13-.25.27-.35.43-.84,1.34-.65,3.32.62,4.56.59.56,1.33.89,2.04.86.92-.02,1.92-.66,2.2-1.7.15-.56.39-1.08.61-1.6.41-1.04.81-2.08,1.11-3.18.31-1.13.58-2.28.76-3.46.23-1.6.28-3.23.24-4.88-.07-2.47-.19-5.01-.56-7.49-.33-2.22-.99-4.39-1.62-6.55-.57-1.97-1.29-3.97-2.17-5.83-1.32-2.74-2.72-5.48-4.37-7.98Z"/>
</svg>