<?xml version="1.0" encoding="UTF-8"?>
<svg id="Layer_1" data-name="Layer 1" xmlns="http://www.w3.org/2000/svg" viewBox="0 0 1298.24 1500">
  <defs>
    <style>
      .cls-1 {
        fill: #010101;
      }

      .cls-2 {
        fill: #fff;
      }
    </style>
  </defs>
  <path class="cls-1" d="m432.42,1098.72c67.36.9,132.44,24.47,184.75,66.91l25.96,22.97h4.99l30.96-27.96c98.04-81.04,237.58-88.34,343.54-17.98l225.69-443.4-149.8-99.86V244.88c-4.65-79.89-69.8-142.86-149.8-144.8h-49.93c3.43-51.73-35.74-96.44-87.47-99.86-4.12-.27-8.27-.27-12.39,0h-299.59c-51.73-3.43-96.44,35.74-99.86,87.47-.27,4.12-.27,8.27,0,12.39h-49.93c-80,1.95-145.14,64.91-149.8,144.8v354.52l-149.8,99.86,224.7,452.39c46.37-32.55,101.17-50.93,157.79-52.93ZM299.59,244.88c1.05-25.9,22.9-46.05,48.79-45,.38.02.76.04,1.14.06h599.19c25.87-1.71,48.22,17.87,49.93,43.73.14,2.07.14,4.13,0,6.2v299.59l-349.53-199.73-349.53,194.74V244.88Zm998.65,1053.58v99.86c-26.22,1.94-50.62,14.14-67.91,33.95-27.13,28.79-61.7,49.52-99.86,59.92-61.39,18.13-127.78,4.24-176.76-36.95l-38.95-34.95c-30.39-30.22-79.46-30.22-109.85,0-13.98,11.98-26.96,24.97-41.94,36.95-73.18,58.48-177.9,55.52-247.67-6.99l-38.95-34.95c-28.6-24.99-71.26-24.99-99.86,0-18.97,14.98-35.95,31.96-54.93,46.94-70.33,52.08-167.09,49.61-234.68-5.99l-30.96-26.96c-14.45-16.55-34.23-27.5-55.92-30.96v-99.86c25.82-3.2,51.98,1.69,74.9,13.98,27.78,17.2,54.17,36.56,78.89,57.92,20.48,22.32,51.4,31.86,80.89,24.97,11.23-3.33,21.74-8.75,30.96-15.98,15.98-11.98,28.96-25.96,44.94-38.95,70.96-58.8,173.71-58.8,244.67,0,15.98,12.98,30.96,27.96,46.94,40.94,28.6,24.99,71.26,24.99,99.86,0,15.98-12.98,30.96-27.96,46.94-40.94,71.13-59.35,174.53-59.35,245.67,0,14.98,12.98,28.96,26.96,43.94,38.95,28.6,24.99,71.26,24.99,99.86,0l46.94-40.94c31.91-25.89,71.76-40,112.85-39.95Z"/>
  <path class="cls-1" d="m335.14,374.11c.43.57.99,1.39,1.69,2.45.7,1.06,2.23,2.92,4.61,5.6,2.37,2.68,4.93,5.51,7.66,8.51s6.26,6.12,10.59,9.38,8.74,6.35,13.25,9.29c4.51,2.93,9.85,5.58,16,7.93,6.15,2.35,12.3,4.16,18.43,5.41,6.13,1.26,13.03,1.75,20.69,1.5,7.66-.26,15.36-1.42,23.08-3.49s14.97-4.91,21.74-8.52c6.76-3.61,12.55-7.5,17.37-11.69,4.81-4.19,9.17-8.81,13.06-13.85,3.89-5.05,7.19-10,9.89-14.87,2.7-4.86,4.98-9.75,6.84-14.67,1.86-4.91,3.35-9.39,4.48-13.42s1.94-7.7,2.43-11.01.86-5.82,1.09-7.54l.29-2.77c-.3-.61-.85-1.36-1.64-2.25-.79-.89-2.34-2.82-4.66-5.79s-4.85-5.74-7.61-8.31c-2.76-2.57-6.29-5.7-10.59-9.38-4.3-3.68-8.73-6.84-13.31-9.48s-9.89-5.22-15.95-7.74-12.22-4.39-18.48-5.61-13.14-1.65-20.64-1.3-15.21,1.45-23.13,3.3-15.17,4.69-21.74,8.52c-6.57,3.83-12.34,7.79-17.31,11.89-4.98,4.09-9.33,8.71-13.06,13.85s-7.03,10.1-9.89,14.87-5.14,9.66-6.84,14.67-3.19,9.48-4.48,13.42c-1.29,3.94-2.1,7.6-2.43,11.01-.33,3.4-.69,5.91-1.09,7.54l-.34,2.58Zm48.3-12.94c-3.55-13.27-1.89-25.86,4.99-37.78,6.88-11.92,17-19.74,30.36-23.46,13.36-3.72,26.03-2.01,38.02,5.13,11.99,7.14,19.73,17.21,23.21,30.22,3.49,13.01,1.84,25.67-4.94,37.97-6.78,12.31-16.92,20.06-30.42,23.26s-26.16,1.56-37.97-4.94c-11.82-6.5-19.57-16.63-23.26-30.42Zm24.15-6.47c1.79,6.7,5.71,11.79,11.75,15.28,6.04,3.49,12.33,4.29,18.86,2.4,6.53-1.89,11.58-5.73,15.14-11.51s4.4-12.15,2.54-19.11c-1.86-6.95-5.76-11.98-11.7-15.09-5.94-3.1-12.24-3.97-18.92-2.59-.13.03-.3.15-.53.35-.22.2-.42.25-.58.16,1.39,2.11,2.32,4,2.76,5.68,1.35,5.02.75,9.74-1.8,14.15-2.55,4.41-6.39,7.3-11.55,8.68-1.55.41-3.58.55-6.11.39.03.13.02.34-.04.63s0,.49.16.58h0Z"/>
  <path class="cls-1" d="m965.14,363.07c-.43.57-.99,1.39-1.69,2.45-.7,1.06-2.23,2.92-4.61,5.6-2.37,2.68-4.93,5.51-7.66,8.51s-6.26,6.12-10.59,9.38-8.74,6.35-13.25,9.29c-4.51,2.93-9.85,5.58-16,7.93-6.15,2.35-12.3,4.16-18.43,5.41-6.13,1.26-13.03,1.75-20.69,1.5-7.66-.26-15.36-1.42-23.08-3.49-7.73-2.07-14.97-4.91-21.74-8.52-6.76-3.61-12.55-7.5-17.37-11.69-4.81-4.19-9.17-8.81-13.06-13.85-3.89-5.05-7.19-10-9.89-14.87-2.7-4.86-4.98-9.75-6.84-14.67-1.86-4.91-3.35-9.39-4.48-13.42s-1.94-7.7-2.43-11.01-.86-5.82-1.09-7.54l-.29-2.77c.3-.61.85-1.36,1.64-2.25.79-.89,2.34-2.82,4.66-5.79s4.85-5.74,7.61-8.31c2.76-2.57,6.29-5.7,10.59-9.38,4.3-3.68,8.73-6.84,13.31-9.48s9.89-5.22,15.95-7.74,12.22-4.39,18.48-5.61,13.14-1.65,20.64-1.3c7.5.35,15.21,1.45,23.13,3.3s15.17,4.69,21.74,8.52c6.57,3.83,12.34,7.79,17.31,11.89,4.98,4.09,9.33,8.71,13.06,13.85,3.73,5.14,7.03,10.1,9.89,14.87s5.14,9.66,6.84,14.67,3.19,9.48,4.48,13.42c1.29,3.94,2.1,7.6,2.43,11.01.33,3.4.69,5.91,1.09,7.54l.34,2.58Zm-48.3-12.94c3.55-13.27,1.89-25.86-4.99-37.78-6.88-11.92-17-19.74-30.36-23.46-13.36-3.72-26.03-2.01-38.02,5.13-11.99,7.14-19.73,17.21-23.21,30.22s-1.84,25.67,4.94,37.97c6.78,12.31,16.92,20.06,30.42,23.26,13.5,3.2,26.16,1.56,37.97-4.94,11.82-6.5,19.57-16.63,23.26-30.42Zm-24.15-6.47c-1.79,6.7-5.71,11.79-11.75,15.28-6.04,3.49-12.33,4.29-18.86,2.4-6.53-1.89-11.58-5.73-15.14-11.51s-4.4-12.15-2.54-19.11,5.76-11.98,11.7-15.09c5.94-3.1,12.24-3.97,18.92-2.59.13.03.3.15.53.35.22.2.42.25.58.16-1.39,2.11-2.32,4-2.76,5.68-1.35,5.02-.75,9.74,1.8,14.15,2.55,4.41,6.39,7.3,11.55,8.68,1.55.41,3.58.55,6.11.39-.03.13-.02.34.04.63s0,.49-.16.58h0Z"/>
  <path class="cls-2" d="m400.75,757.29c.91-.76,7.25,3.22,16.98,8.26,72.03,37.27,174.34,51.59,241.87,48.84,143.74-5.86,222.32-92.82,236.2-81.92,18.03,14.16-92.83,177.9-236.2,178.73-138.15.79-263.65-149.92-258.85-153.9Z"/>
</svg>